<?xml version="1.0" standalone="no"?>
<!DOCTYPE svg PUBLIC "-//W3C//DTD SVG 20010904//EN"
 "http://www.w3.org/TR/2001/REC-SVG-20010904/DTD/svg10.dtd">
<svg version="1.0" xmlns="http://www.w3.org/2000/svg"
 width="1280.000000pt" height="1280.000000pt" viewBox="0 0 1280.000000 1280.000000"
 preserveAspectRatio="xMidYMid meet">

<g transform="translate(0.000000,1280.000000) scale(0.100000,-0.100000)"
fill="#000000" stroke="none">
<path d="M6405 9970 c-13 -21 -85 -232 -85 -249 0 -13 10 -21 33 -25 44 -8
156 -10 163 -3 3 3 -8 49 -25 104 -57 179 -68 202 -86 173z"/>
<path d="M7583 9793 c-15 -3 -23 -12 -23 -24 0 -19 7 -19 173 -17 164 3 172 4
172 23 0 19 -7 20 -150 21 -82 1 -160 0 -172 -3z"/>
<path d="M7730 9590 c0 -18 7 -20 84 -20 75 0 84 2 89 20 5 19 0 20 -84 20
-82 0 -89 -1 -89 -20z"/>
<path d="M7730 9410 c0 -18 7 -20 84 -20 75 0 84 2 89 20 5 19 0 20 -84 20
-82 0 -89 -1 -89 -20z"/>
<path d="M7725 9250 c-13 -22 10 -29 95 -32 79 -3 85 -2 85 17 0 18 -8 20 -87
23 -56 2 -89 -1 -93 -8z"/>
<path d="M7562 9058 c3 -23 5 -23 171 -26 l167 -2 0 25 0 25 -171 0 -170 0 3
-22z"/>
<path d="M7737 8883 c-4 -3 -7 -12 -7 -20 0 -10 21 -13 85 -13 78 0 85 2 85
20 0 18 -7 20 -78 20 -43 0 -82 -3 -85 -7z"/>
<path d="M7730 8690 c0 -18 7 -20 85 -20 78 0 85 2 85 20 0 18 -7 20 -85 20
-78 0 -85 -2 -85 -20z"/>
<path d="M7562 8508 c3 -23 4 -23 173 -23 163 0 170 1 170 20 0 19 -8 20 -173
23 l-173 2 3 -22z"/>
<path d="M8315 8280 c-15 -61 -26 -112 -24 -114 10 -10 116 -16 128 -8 11 8
10 22 -3 83 -31 137 -36 149 -55 149 -15 0 -24 -20 -46 -110z"/>
<path d="M8696 8368 c-19 -69 -48 -200 -44 -203 1 -2 33 -6 71 -10 l67 -7 0
28 c0 16 -11 70 -23 119 -19 74 -27 91 -44 93 -14 2 -22 -4 -27 -20z"/>
<path d="M9046 8381 c-6 -9 -46 -195 -46 -211 0 -9 127 -23 140 -15 9 5 -9 92
-37 183 -11 37 -21 52 -34 52 -10 0 -20 -4 -23 -9z"/>
<path d="M7747 8333 c-10 -3 -17 -12 -15 -21 3 -14 17 -17 88 -17 78 0 85 2
85 20 0 18 -7 20 -70 22 -38 0 -78 -1 -88 -4z"/>
<path d="M7722 8152 c-162 -2 -163 -3 -160 -25 3 -22 6 -22 176 -25 l173 -2
-3 26 c-2 15 -7 28 -13 28 -5 1 -83 0 -173 -2z"/>
<path d="M7730 7940 c0 -18 7 -20 85 -20 78 0 85 2 85 20 0 18 -7 20 -85 20
-78 0 -85 -2 -85 -20z"/>
<path d="M8395 7766 c-15 -19 -34 -37 -42 -40 -18 -7 -49 8 -85 42 -26 24 -30
25 -68 13 l-40 -12 0 -1534 0 -1534 31 -35 c17 -20 47 -40 67 -46 88 -24 203
0 247 51 l26 31 24 -26 c43 -47 109 -69 182 -63 75 7 119 28 141 68 10 16 19
29 22 29 3 0 4 663 3 1473 0 809 2 1498 6 1529 7 50 6 56 -8 49 -10 -6 -26 -1
-50 15 -20 13 -41 24 -48 24 -7 0 -29 -18 -49 -40 -20 -22 -44 -40 -54 -40
-10 0 -41 16 -70 36 -48 33 -53 34 -69 20 -19 -17 -51 -22 -51 -7 0 9 -53 31
-75 31 -7 0 -25 -16 -40 -34z m152 -698 c-2 -13 -4 -5 -4 17 -1 22 1 32 4 23
2 -10 2 -28 0 -40z m0 -161 c-2 -23 -3 -1 -3 48 0 50 1 68 3 42 2 -26 2 -67 0
-90z"/>
<path d="M7577 7773 c-4 -3 -7 -15 -7 -25 0 -17 12 -18 165 -18 l165 0 0 25 0
25 -158 0 c-87 0 -162 -3 -165 -7z"/>
<path d="M9114 7744 l-27 -35 1 -1177 c0 -647 -2 -1267 -6 -1377 l-7 -200 -5
125 c-4 89 -6 54 -6 -120 0 -135 2 -208 3 -162 2 45 8 82 13 82 11 0 13 -84 3
-183 l-6 -67 -50 5 c-27 2 -47 2 -44 -1 3 -4 37 -10 74 -14 109 -11 177 18
204 88 5 13 9 676 9 1550 0 1313 -2 1523 -14 1507 -14 -19 -15 -19 -50 -2 -51
24 -61 22 -92 -19z"/>
<path d="M9000 7720 c14 -11 36 -20 50 -20 20 0 17 4 -19 20 -54 25 -63 25
-31 0z"/>
<path d="M9042 7563 c-1 -23 -8 -44 -14 -47 -10 -5 -10 -7 0 -12 8 -4 13 -31
14 -77 1 -48 3 -58 5 -29 2 23 8 42 14 42 5 0 8 36 7 83 -1 73 -2 77 -8 32
l-6 -50 -5 50 c-5 50 -5 50 -7 8z"/>
<path d="M7748 7583 c-25 -6 -22 -30 5 -37 12 -3 50 -6 83 -6 47 0 63 4 68 16
3 9 4 20 0 25 -5 9 -124 11 -156 2z"/>
<path d="M7560 7385 l0 -25 176 0 c169 0 175 1 172 20 -3 18 -14 19 -175 24
l-173 5 0 -24z"/>
<path d="M9043 7315 c0 -22 2 -30 4 -17 2 12 2 30 0 40 -3 9 -5 -1 -4 -23z"/>
<path d="M7787 7213 c-48 -3 -67 -8 -64 -16 2 -8 34 -13 90 -15 82 -3 87 -2
87 18 0 15 -6 19 -22 18 -13 -1 -54 -3 -91 -5z"/>
<path d="M7724 7029 c-15 -25 20 -36 99 -31 67 4 77 7 77 23 0 17 -8 19 -84
19 -51 0 -88 -4 -92 -11z"/>
<path d="M7564 6845 c-12 -31 7 -35 172 -35 l164 0 0 25 0 25 -165 0 c-136 0
-167 -3 -171 -15z"/>
<path d="M7727 6664 c-3 -3 -3 -12 0 -20 4 -10 26 -14 89 -14 77 0 84 2 84 20
0 18 -7 20 -83 20 -46 0 -86 -3 -90 -6z"/>
<path d="M7727 6484 c-3 -3 -3 -12 0 -20 4 -11 27 -14 95 -14 78 0 89 2 84 16
-3 9 -6 18 -6 20 0 6 -166 5 -173 -2z"/>
<path d="M7723 6312 c-152 -2 -163 -4 -163 -21 0 -17 12 -20 133 -26 72 -4
150 -5 172 -3 35 3 40 6 40 27 0 29 17 27 -182 23z"/>
<path d="M7813 6122 c-75 -3 -83 -5 -83 -22 0 -18 7 -20 90 -20 82 0 90 2 90
19 0 26 -2 26 -97 23z"/>
<path d="M7787 5943 c-48 -3 -58 -7 -55 -21 3 -14 17 -18 84 -20 74 -3 82 -1
87 17 6 25 0 31 -32 29 -14 -1 -52 -3 -84 -5z"/>
<path d="M7560 5751 c0 -10 7 -22 16 -25 9 -3 84 -6 169 -6 143 0 153 1 158
19 3 11 2 22 -1 25 -3 3 -81 6 -174 6 -158 0 -168 -1 -168 -19z"/>
<path d="M7726 5565 c-8 -22 10 -26 100 -23 62 2 79 6 79 18 0 23 -170 28
-179 5z"/>
<path d="M3785 5449 c-62 -14 -157 -69 -201 -119 -57 -62 -104 -192 -104 -285
0 -158 87 -314 220 -393 l45 -27 1577 -3 c1570 -2 1578 -2 1598 18 27 27 25
56 -5 85 -23 24 -31 25 -133 25 -60 0 -111 3 -115 6 -3 3 -1 18 4 33 6 14 13
65 16 113 l6 87 -270 0 -271 1 -5 -25 c-9 -49 0 -150 17 -183 9 -17 13 -32 9
-32 -5 0 -545 0 -1201 0 l-1194 -1 -34 26 c-81 62 -113 132 -114 252 0 104 26
179 82 235 73 73 -18 68 1268 68 l1161 0 -3 63 -3 62 -1155 1 c-635 1 -1173
-3 -1195 -7z"/>
<path d="M6700 5395 l0 -65 53 -1 c173 -3 208 14 176 84 -16 36 -50 47 -144
47 l-85 0 0 -65z"/>
<path d="M7564 5385 c-12 -31 7 -35 172 -35 l164 0 0 25 0 25 -165 0 c-136 0
-167 -3 -171 -15z"/>
<path d="M7724 5199 c-12 -20 19 -29 97 -29 73 0 89 6 89 36 0 10 -179 3 -186
-7z"/>
<path d="M6520 5160 c0 -5 5 -10 11 -10 5 0 7 5 4 10 -3 6 -8 10 -11 10 -2 0
-4 -4 -4 -10z"/>
<path d="M6620 5160 l-25 -7 25 -5 25 -5 -24 -2 c-24 -1 -24 -2 -6 -15 18 -13
14 -15 -38 -21 -32 -4 -56 -10 -53 -12 3 -3 40 -5 83 -5 l78 0 0 38 c0 40 -15
49 -65 34z"/>
<path d="M9044 5000 c0 -69 1 -97 3 -62 2 34 2 90 0 125 -2 34 -3 6 -3 -63z"/>
<path d="M7725 5030 c-14 -22 10 -30 90 -30 62 0 84 4 88 14 3 8 3 17 0 20
-11 10 -171 7 -178 -4z"/>
<path d="M7567 4863 c-4 -3 -7 -15 -7 -25 0 -17 12 -18 170 -18 l170 0 0 25 0
25 -163 0 c-90 0 -167 -3 -170 -7z"/>
<path d="M8910 4691 c0 -10 41 -43 47 -38 1 2 0 13 -4 26 -4 17 -8 19 -14 9
-7 -10 -9 -10 -9 0 0 6 -4 12 -10 12 -5 0 -10 -4 -10 -9z"/>
<path d="M5622 4017 c-37 -21 -55 -55 -48 -90 10 -47 43 -77 86 -77 100 0 133
122 45 164 -39 19 -53 19 -83 3z"/>
<path d="M5905 4021 c-50 -21 -73 -76 -50 -120 27 -54 91 -68 138 -31 51 41
42 116 -18 144 -37 18 -41 18 -70 7z"/>
<path d="M8280 3624 l0 -386 31 6 c17 3 51 6 74 6 l42 0 6 83 c5 87 14 120 28
111 9 -5 106 -133 134 -176 17 -27 20 -28 112 -28 80 0 94 2 89 15 -3 8 -45
68 -94 132 -48 65 -92 124 -96 131 -5 8 18 43 66 99 40 47 86 101 101 119 l28
34 -94 0 -94 0 -64 -76 c-35 -43 -77 -91 -92 -108 l-28 -31 3 225 3 225 -77 3
-78 3 0 -387z"/>
<path d="M3850 3966 c-73 -20 -120 -46 -170 -97 -143 -143 -147 -373 -10 -516
70 -73 139 -107 245 -118 109 -12 258 34 331 101 23 22 24 27 24 164 l0 140
-155 0 -155 0 0 -60 0 -60 60 -1 c33 -1 66 -2 73 -3 7 -1 13 -20 15 -48 3 -44
1 -48 -29 -63 -50 -26 -131 -31 -186 -10 -93 35 -143 108 -143 213 0 74 9 98
52 147 81 93 206 98 309 14 31 -24 38 -22 98 34 47 44 46 55 -15 105 -76 63
-232 89 -344 58z"/>
<path d="M6380 3606 c0 -195 4 -357 8 -360 4 -2 100 -1 212 3 179 7 210 10
245 28 77 40 115 98 115 174 0 59 -22 101 -71 134 -24 16 -46 31 -49 33 -2 2
10 14 28 28 45 35 62 74 62 136 0 69 -31 117 -97 149 -45 22 -62 24 -250 27
l-203 3 0 -355z m355 199 c26 -25 32 -63 15 -95 -14 -26 -63 -40 -136 -40
l-64 0 0 80 0 80 80 0 c73 0 83 -3 105 -25z m-48 -261 c67 -8 93 -32 93 -85 0
-58 -38 -79 -147 -79 l-83 0 0 85 0 85 43 0 c23 0 65 -3 94 -6z"/>
<path d="M4567 3779 c-126 -20 -219 -134 -220 -269 -3 -242 270 -365 471 -212
17 13 32 30 32 36 0 7 -20 27 -43 44 l-44 31 -49 -25 c-67 -35 -137 -30 -170
12 -13 15 -25 36 -27 46 -5 17 6 18 179 18 l184 0 0 48 c0 182 -136 299 -313
271z m125 -146 c15 -15 28 -37 28 -50 0 -23 -2 -23 -105 -23 -115 0 -123 5
-84 54 42 53 116 62 161 19z"/>
<path d="M5237 3776 c-21 -8 -56 -26 -77 -40 l-40 -26 0 30 0 30 -80 0 -80 0
0 -265 0 -265 34 0 c18 0 54 3 79 6 l46 7 3 163 3 163 29 30 c25 26 37 31 76
31 36 0 52 -5 68 -23 20 -21 22 -34 24 -197 l3 -175 75 0 75 0 0 195 c0 135
-4 206 -13 232 -16 46 -69 94 -119 107 -48 14 -59 13 -106 -3z"/>
<path d="M7845 3776 c-90 -22 -150 -68 -191 -149 -22 -41 -29 -150 -15 -204
37 -137 206 -222 354 -179 77 22 136 70 170 135 54 108 29 265 -54 335 -70 59
-173 83 -264 62z m130 -148 c96 -75 54 -258 -59 -258 -79 0 -136 76 -122 164
9 53 30 84 69 101 46 20 80 18 112 -7z"/>
<path d="M8993 3776 c-98 -24 -143 -75 -143 -161 0 -89 47 -136 165 -164 63
-16 95 -36 95 -61 0 -47 -106 -46 -170 1 -31 24 -48 19 -89 -25 -22 -23 -23
-27 -9 -48 9 -13 42 -37 74 -53 50 -25 71 -30 134 -30 134 0 220 65 220 166 0
73 -45 119 -150 154 -97 32 -130 56 -114 82 17 28 96 30 133 4 16 -12 33 -21
38 -21 4 1 26 16 48 35 l40 34 -25 27 c-52 56 -157 82 -247 60z"/>
<path d="M7210 3771 c-84 -27 -159 -101 -181 -178 -55 -196 67 -357 271 -357
91 1 147 23 207 83 55 55 77 121 71 210 -8 106 -58 184 -146 227 -40 20 -178
29 -222 15z m134 -131 c42 -16 66 -66 66 -138 0 -59 -2 -66 -34 -98 -28 -28
-42 -34 -76 -34 -82 0 -126 58 -118 155 8 95 80 146 162 115z"/>
<path d="M5580 3504 l0 -267 61 7 c34 3 73 6 85 6 l24 0 0 260 0 260 -85 0
-85 0 0 -266z"/>
<path d="M5860 3505 l0 -265 64 0 c104 0 96 -24 96 271 l0 259 -80 0 -80 0 0
-265z"/>
<path d="M5257 2894 c-4 -4 -7 -106 -7 -226 l0 -218 30 0 30 0 0 220 c0 127
-4 220 -9 220 -5 0 -16 2 -23 5 -8 3 -17 2 -21 -1z"/>
<path d="M8977 2893 c-4 -3 -7 -105 -7 -225 l0 -218 31 0 c28 0 31 3 25 23 -3
12 -6 113 -6 225 0 189 -1 202 -18 202 -10 0 -22 -3 -25 -7z"/>
<path d="M4470 2670 l0 -220 25 0 c23 0 25 3 25 49 0 40 4 51 23 63 21 14 24
12 72 -48 43 -55 54 -63 84 -64 l33 0 -44 53 c-24 28 -55 67 -67 85 l-24 34
57 57 c31 31 56 60 56 64 0 4 -11 7 -25 7 -18 0 -45 -21 -95 -72 l-69 -73 -1
143 0 142 -25 0 -25 0 0 -220z"/>
<path d="M6635 2860 c-8 -25 10 -50 36 -50 20 0 36 40 24 59 -11 19 -53 12
-60 -9z"/>
<path d="M7914 2854 c-11 -41 36 -62 56 -25 7 15 6 23 -6 35 -23 24 -43 19
-50 -10z"/>
<path d="M3715 2753 c-11 -3 -32 -14 -47 -25 -28 -19 -28 -19 -28 1 0 16 -6
21 -25 21 l-26 0 3 -147 3 -148 25 0 c28 0 27 -5 29 115 1 82 3 93 26 115 31
32 78 33 99 3 12 -17 16 -49 16 -131 l0 -108 28 3 27 3 5 106 c5 99 7 108 30
128 32 26 72 27 96 0 15 -17 19 -40 22 -130 4 -108 4 -109 29 -109 l25 0 -4
119 c-3 102 -6 124 -24 147 -38 51 -125 53 -170 3 -17 -19 -18 -19 -43 5 -28
26 -64 37 -96 29z"/>
<path d="M4207 2749 c-21 -5 -47 -15 -58 -23 -17 -12 -18 -15 -4 -26 11 -9 22
-9 46 -1 68 24 129 3 129 -45 0 -22 -4 -24 -50 -24 -92 0 -150 -41 -150 -105
0 -39 35 -74 82 -81 30 -5 63 4 121 34 4 2 7 -3 7 -12 0 -10 9 -16 25 -16 l25
0 0 113 c0 134 -15 169 -77 186 -43 12 -44 12 -96 0z m117 -174 c8 -22 -10
-62 -33 -74 -27 -15 -94 -14 -109 1 -19 19 -14 55 10 72 30 21 124 22 132 1z"/>
<path d="M4826 2738 c-107 -63 -100 -225 11 -279 30 -15 55 -20 78 -16 47 8
105 37 105 52 0 21 -29 26 -60 10 -43 -22 -84 -19 -119 11 -34 28 -41 63 -13
66 9 0 22 2 27 3 6 2 47 3 93 4 l82 1 0 30 c0 105 -113 171 -204 118z m128
-53 c15 -14 26 -33 24 -43 -3 -14 -15 -17 -83 -17 -74 0 -80 2 -83 21 -4 29
41 64 83 64 20 0 42 -9 59 -25z"/>
<path d="M5460 2742 c-50 -25 -80 -75 -79 -131 1 -63 9 -86 42 -121 53 -56
147 -61 209 -11 18 16 21 22 10 32 -10 11 -18 10 -41 -4 -56 -33 -125 -17
-156 35 -24 42 -12 48 113 48 l102 0 0 36 c0 48 -25 87 -70 113 -46 26 -84 27
-130 3z m125 -57 c46 -45 35 -55 -64 -55 -85 0 -89 1 -84 20 15 58 105 79 148
35z"/>
<path d="M5807 2749 c-21 -5 -47 -15 -58 -23 -17 -12 -18 -15 -4 -26 12 -10
21 -10 41 -1 41 18 88 14 112 -12 39 -41 30 -57 -33 -57 -64 0 -119 -20 -134
-48 -19 -36 -13 -86 13 -111 42 -39 92 -38 179 7 4 2 7 -3 7 -12 0 -9 8 -16
20 -16 19 0 20 7 20 113 0 61 -3 121 -6 132 -13 46 -86 72 -157 54z m113 -192
c0 -25 -6 -36 -29 -50 -36 -21 -85 -22 -105 -1 -40 39 3 84 81 84 l53 0 0 -33z"/>
<path d="M6170 2744 c-14 -9 -31 -24 -37 -32 -11 -14 -13 -12 -13 11 0 24 -4
27 -31 27 -24 0 -30 -3 -25 -16 3 -9 6 -76 6 -150 l0 -134 25 0 c25 0 25 0 25
96 0 92 1 97 29 125 16 16 39 29 50 29 14 0 21 6 21 20 0 11 0 23 1 28 1 14
-26 12 -51 -4z"/>
<path d="M6403 2749 c-18 -5 -35 -14 -38 -19 -9 -15 -25 -12 -25 5 0 9 -9 15
-25 15 l-25 0 0 -150 0 -150 25 0 25 0 0 101 c0 98 1 101 29 130 32 31 46 34
84 20 33 -13 49 -63 47 -153 -2 -101 -3 -98 25 -98 l25 0 0 105 c0 129 -14
169 -64 190 -40 17 -39 17 -83 4z"/>
<path d="M6894 2746 c-18 -8 -35 -19 -38 -25 -12 -18 -24 -12 -19 9 4 16 0 20
-21 20 l-26 0 0 -150 0 -150 25 0 25 0 0 101 c0 98 1 101 29 130 19 19 40 29
59 29 49 0 59 -23 67 -147 7 -111 8 -113 32 -113 l25 0 -4 125 c-3 118 -4 126
-29 150 -31 31 -83 40 -125 21z"/>
<path d="M7200 2743 c-52 -27 -80 -75 -80 -140 0 -30 7 -67 15 -83 37 -72 135
-94 194 -44 l31 26 0 -30 c0 -50 -18 -82 -52 -96 -39 -16 -96 -10 -121 12 -16
14 -19 14 -34 -1 -16 -15 -15 -18 1 -36 9 -10 37 -24 62 -30 60 -15 118 1 161
44 l33 33 0 176 0 176 -25 0 c-16 0 -25 -6 -25 -15 0 -19 -9 -19 -31 1 -27 24
-89 28 -129 7z m131 -62 c75 -75 2 -213 -96 -181 -38 13 -60 48 -60 100 0 98
91 145 156 81z"/>
<path d="M7669 2737 c-29 -19 -34 -29 -37 -68 -4 -55 2 -60 88 -91 67 -24 84
-45 60 -73 -17 -20 -85 -19 -116 1 -18 12 -28 14 -36 6 -31 -31 49 -77 121
-69 35 4 52 12 74 37 50 56 20 109 -80 145 -60 21 -76 42 -53 70 16 20 70 19
98 -1 18 -12 26 -13 37 -4 22 18 19 24 -24 48 -50 28 -89 28 -132 -1z"/>
<path d="M8370 2749 c-14 -6 -34 -19 -46 -30 -20 -19 -21 -19 -44 6 -32 34
-109 36 -140 3 l-21 -23 -6 23 c-3 15 -13 22 -29 22 l-24 0 0 -150 0 -150 25
0 c24 0 25 3 26 58 2 118 12 164 41 185 18 13 34 18 52 13 41 -10 56 -52 56
-161 0 -95 0 -95 25 -95 l25 0 0 101 c0 98 1 101 29 130 37 37 73 38 100 3 18
-23 21 -41 21 -130 l0 -104 25 0 25 0 0 116 c0 131 -12 166 -63 184 -36 12
-44 12 -77 -1z"/>
<path d="M8688 2735 c-35 -23 -36 -24 -41 -5 -3 12 -14 20 -26 20 -21 0 -21
-2 -19 -217 l3 -218 25 0 c25 0 25 0 23 88 -1 48 0 87 3 87 4 0 19 -11 36 -25
45 -38 94 -34 146 11 144 123 5 364 -150 259z m127 -57 c24 -28 27 -39 23 -85
-5 -62 -26 -90 -75 -99 -47 -9 -76 7 -98 51 -24 51 -15 102 25 138 43 39 90
37 125 -5z"/>
<path d="M9202 2753 c-37 -8 -90 -65 -97 -106 -31 -163 119 -265 245 -167 23
18 24 20 8 36 -15 16 -18 15 -44 -5 -38 -30 -98 -28 -129 4 -14 13 -25 33 -25
43 0 22 48 32 161 32 79 0 82 6 53 80 -26 66 -96 100 -172 83z m83 -49 c15 -6
51 -62 43 -69 -2 -1 -40 -5 -85 -8 -75 -5 -83 -3 -83 13 0 9 9 29 21 44 21 26
65 35 104 20z"/>
<path d="M6640 2600 l0 -150 25 0 25 0 0 150 0 150 -25 0 -25 0 0 -150z"/>
<path d="M7918 2635 c-1 -63 -2 -130 -2 -147 -1 -26 3 -34 20 -36 28 -4 34 27
34 179 l0 119 -25 0 -25 0 -2 -115z"/>
</g>
</svg>
